<?xml version="1.0" encoding="utf-8"?>
<!-- Generator: Adobe Illustrator 27.3.1, SVG Export Plug-In . SVG Version: 6.00 Build 0)  -->
<svg version="1.1" id="Layer_1" xmlns="http://www.w3.org/2000/svg" xmlns:xlink="http://www.w3.org/1999/xlink" x="0px" y="0px"
	 viewBox="0 0 992.13 708.66" style="enable-background:new 0 0 992.13 708.66;" xml:space="preserve">
<style type="text/css">
	.st0{fill:#D8A74B;}
	.st1{display:none;}
	.st2{display:inline;fill:#D8A74B;}
	.st3{display:inline;fill:#DAA84D;}
	.st4{display:inline;fill:none;}
</style>
<g>
	<path class="st0" d="M459.66,419.05c0,0,0-0.03-0.03-0.06"/>
	<path class="st0" d="M515.2,417.34l8.35,16.96l-27.48,46.62l-27.48-46.62l8.35-16.96c-27.91-33.96-13.82-61.56-13.82-61.56
		s4.62,26.17,26.2,43.44h13.51c21.58-17.27,26.2-43.44,26.2-43.44S543.11,383.38,515.2,417.34z"/>
	<path class="st0" d="M524.7,483.79c0,0,46.31-23.02,43.44-110.2l-35.52,45.21c2.6-4.31,36.01-61.81-10.24-96.69l-26.32,25.59
		l-26.32-25.59c-46.24,34.89-12.83,92.39-10.24,96.7l-35.52-45.21c-2.87,87.18,43.44,110.2,43.44,110.2
		c-117.93-34.82-100.69-140.1-100.69-140.1l29.35,18.68c0,0,4.62-4.89,26.47-27.91c27.91-28.18,26.47-42.58,27.91-57.53
		s3.73-18.13,19.56-35.67c15.83-17.55,26.04-16.38,26.04-16.38s10.21-1.16,26.04,16.38c15.83,17.55,18.13,20.72,19.56,35.67
		c1.44,14.95,0,29.34,27.91,57.53c21.86,23.02,26.47,27.91,26.47,27.91l29.34-18.68C625.39,343.7,642.63,448.98,524.7,483.79z"/>
	<path class="st0" d="M532.5,418.99c-0.03,0.03-0.03,0.06-0.03,0.06"/>
</g>
<g class="st1">
	<path class="st2" d="M386.51,226.13c0,0,6.55,54.95,48.55,79.69l-16.97,42.58l19.85,30.21c0,0-19.85-7.48-28.77,8.06
		C409.16,386.66,331.92,335.74,386.51,226.13z"/>
	<path class="st2" d="M369.18,444.2l-2.19,6.33l31.82,30.5l35.67-35.1l14.38-52.07c0,0-34.52,38.55-48.91,45.17
		C385.57,445.64,369.18,444.2,369.18,444.2z"/>
	<path class="st2" d="M582.96,386.67c-13.84-21.87-37.72-1.73-37.72-1.73l0.45-13.05c8.07-5.22,14.48-12.61,19.11-22.33l0.1-48.98
		c40.61-26.48,40.71-74.44,40.71-74.44C660.21,335.75,582.96,386.67,582.96,386.67z"/>
	<path class="st2" d="M625.14,454.2l-31.06,29.4l-36.43-37.66l-9.1-46.3c0,0,28.32,35.2,42.72,41.83
		c14.37,6.6,32.31,5.67,32.31,5.67L625.14,454.2z"/>
	<path class="st2" d="M540.93,443.04l-44.87,40.56l-43.74-41.42l14.67-48.33l-32.22-46.62l14.09-33.35l47.2,6.42l3.45,0.46
		c0,0,0,7.73-3.45,12.93c-1.65,2.54-4.13,4.43-7.79,4.65c-11.22,0.55-16.97,0.28-16.97,0.28v10.64c0,0,12.32,0.58,24.76,1.53
		c12.41,0.95,24.88,2.29,25.31,3.73C523.36,361.27,540.93,443.04,540.93,443.04z"/>
	<path class="st2" d="M549.13,296.19v50.93l-11.07,9.48c-2.02-20.57-26.2-20.57-26.2-20.57l7.55-28.55l-23.35-2.87l-43.53-5.32
		v-19.62c0-3.48,3.18-6.11,6.6-5.47l36.93,6.85l47.81,8.86C546.92,290.44,549.13,293.1,549.13,296.19z"/>
	<polygon class="st2" points="508.5,252.66 496.06,262.6 483.62,252.66 496.06,225.06 	"/>
	<polygon class="st2" points="463.11,246.52 458.62,261.8 442.72,260.79 437.06,231.05 	"/>
	<polygon class="st2" points="557.29,231.85 549.06,261.01 533.14,260.61 530.02,245.02 	"/>
</g>
<g class="st1">
	<path class="st2" d="M513.53,463.2h23.72v20.48h-82.41V463.2h23.72c-31.91-45.55-112.4-35.4-112.4-35.4l10.15-34.97
		c0,0,37.54-1.07,61.04,6.69c23.54,7.76,58.69,49.43,58.69,49.43s35.18-41.66,58.69-49.43c23.54-7.76,61.07-6.69,61.07-6.69
		l10.15,34.97C625.96,427.8,545.48,417.65,513.53,463.2z"/>
	<path class="st2" d="M496.11,265.46l-0.06-0.06c0,0-7.76,8.19-16.69,4.03c-20.85-10.52,12.81-44.45,12.81-44.45
		c-76.39,23.29-36.47,80.48-36.47,80.48l20.08-8.22l-24.5,35.87c-6.74,9.87-6.31,22.98,1.07,32.39l43.69,55.69l43.85-55.9
		c7.3-9.31,7.81-22.26,1.26-32.11L496.11,265.46z M482.98,341.33l13.07-21.19l13.07,21.19c6.12,9.92,5.3,22.63-2.04,31.68
		l-11.03,13.59L485.02,373C477.67,363.95,476.85,351.25,482.98,341.33z"/>
</g>
<g class="st1">
	<polygon class="st2" points="516.48,280.25 496.06,308.53 475.64,280.25 496.06,225.23 	"/>
	<polygon class="st2" points="462.04,273.13 457.3,291.68 439.18,291.68 426.22,251.55 	"/>
	<path class="st2" d="M625.82,391.09c0,0-32.8-31.94-66.18-34.24c0,0-11.8,27.33-37.69,34.24l5.47-26.78l11.49-12.07l-22.44-1.71
		l-12.65,78.53l18.13,26.47v27.91l-25.89-10.94l-25.89,10.94v-27.91l18.13-26.47l-12.66-78.53l-22.44,1.71l11.49,12.07l5.47,26.78
		c-25.89-6.91-37.69-34.24-37.69-34.24c-33.38,2.29-66.18,34.24-66.18,34.24c6.79-47.87,57.07-94.33,58.66-95.77
		c-4,6.91-1.68,18.37,8.38,19.23c10.09,0.86,37.69-11.22,37.69-11.22l25.03,29.93l25.03-29.93c0,0,27.6,12.07,37.69,11.22
		c10.06-0.86,12.35-12.32,8.38-19.23C568.75,296.76,619.04,343.22,625.82,391.09z"/>
	<path class="st2" d="M424.99,295.29c0,0,0,0.03-0.03,0.03"/>
	<polygon class="st2" points="565.91,251.55 552.95,291.68 534.82,291.68 530.08,273.13 	"/>
</g>
<g class="st1">
	<path class="st3" d="M503.98,348.71l27.17-68.17l-18.55-43.59h-33.07l-18.55,43.59l27.17,68.17v66.45l-13.79,41.45l13.36,26.75
		h16.69l13.39-26.75l-13.82-41.45L503.98,348.71L503.98,348.71z M482.34,279.9l7.12-17.7h12.93l7.34,17.7l-13.66,39.25L482.34,279.9
		z"/>
	<path class="st3" d="M466.57,391.23l-0.89-5.56C466.26,387.4,466.57,389.3,466.57,391.23z"/>
	<path class="st3" d="M466.57,391.23c0,10.12-8.19,18.34-18.34,18.34c-10.12,0-18.31-8.22-18.31-18.34
		c0-8.56,5.87-15.74,13.79-17.76c-14.61-33.07-44.02-17.42-44.02-17.42c-5.44-5.44-10.06-10.85-14-16.2l22.5-9.81h-28.95
		c-4.83-8.22-8.13-16.29-10.18-24.06l24.03-10.06l-26.23-0.98c-5.29-39.92,19.04-69.63,19.04-69.63
		c2.57,79.38,70.12,98.61,70.12,98.61l9.66,61.66v0.09L466.57,391.23z"/>
	<path class="st3" d="M625.27,294.94l-26.23,0.98l24.03,10.06c-2.05,7.76-5.35,15.83-10.18,24.06h-28.95l22.5,9.81
		c-3.94,5.35-8.56,10.76-14,16.2c0,0-29.41-15.65-44.02,17.42c7.92,2.02,13.79,9.2,13.79,17.76c0,10.12-8.19,18.34-18.31,18.34
		c-10.15,0-18.34-8.22-18.34-18.34l0.89-5.56v-0.09l9.66-61.66c0,0,67.55-19.23,70.12-98.61
		C606.23,225.3,630.56,255.02,625.27,294.94z"/>
</g>
<g class="st1">
	<polygon class="st2" points="576.96,306.11 564.69,358.15 530.18,365.82 530.18,351.73 461.95,351.73 461.95,365.82 427.44,358.15 
		412.77,295.91 463.39,273.75 463.39,288.42 528.74,288.42 528.74,273.75 	"/>
	<path class="st2" d="M496.06,221.7c-41.88-0.46-129.91,41.42-129.91,41.42l17.7,133.76l99.62,85.43
		c7.24,6.21,17.94,6.21,25.18,0.01l0,0l99.62-85.44l17.7-133.76C625.98,263.11,537.94,221.24,496.06,221.7z M593.79,388.81
		l-83.76,71.01v-60.34h19.84v-25.46h-67.62v25.46h19.84v60.34l-83.76-71.01l-15.31-115.97c0,0,36.21-17.23,73.22-29.47
		c25.85-8.55,53.79-8.55,79.64,0c37.01,12.24,73.22,29.47,73.22,29.47L593.79,388.81z"/>
	<polygon class="st2" points="515.93,269.9 476.19,269.9 496.06,248.01 	"/>
	<line class="st4" x1="482.09" y1="460.37" x2="482.09" y2="459.82"/>
</g>
</svg>
