<?xml version="1.0" encoding="utf-8"?>
<!-- Generator: Adobe Illustrator 27.0.0, SVG Export Plug-In . SVG Version: 6.00 Build 0)  -->
<svg version="1.1" id="Layer_1" xmlns="http://www.w3.org/2000/svg" xmlns:xlink="http://www.w3.org/1999/xlink" x="0px" y="0px"
	 viewBox="0 0 71.73 71.73" style="enable-background:new 0 0 71.73 71.73;" xml:space="preserve">
<style type="text/css">
	.st0{fill:#E93426;}
	.st1{fill:#FFFFFF;}
</style>
<g id="XMLID_1442_">
	<path id="XMLID_1446_" class="st0" d="M35.86,71.73L35.86,71.73C16.06,71.73,0,55.67,0,35.86l0,0C0,16.06,16.06,0,35.86,0l0,0
		c19.81,0,35.86,16.06,35.86,35.86l0,0C71.73,55.67,55.67,71.73,35.86,71.73z"/>
	<g id="XMLID_1443_">
		<path id="XMLID_1445_" class="st1" d="M40.35,34.93H25.86l0.02,4.15h9.77c-1.16,5.05-4.72,8.15-9.51,8.15
			c-6.28,0-11.37-5.09-11.37-11.37S19.86,24.5,26.14,24.5c2.99,0,5.7,1.15,7.73,3.03l3.21-2.76c-2.81-2.77-6.67-4.48-10.93-4.48
			c-8.61,0-15.58,6.98-15.58,15.58c0,8.61,6.98,15.58,15.58,15.58c8.26,0,14.23-6.3,14.23-14.91L40.35,34.93z"/>
		<polygon id="XMLID_1444_" class="st1" points="61.17,35.1 55.19,35.1 55.19,29.12 51.37,29.12 51.37,35.1 45.39,35.1 45.39,38.92 
			51.37,38.92 51.37,44.9 55.19,44.9 55.19,38.92 61.17,38.92 		"/>
	</g>
</g>
</svg>
