<?xml version="1.0" encoding="utf-8"?>
<!-- Generator: Adobe Illustrator 27.0.0, SVG Export Plug-In . SVG Version: 6.00 Build 0)  -->
<svg version="1.1" id="Layer_1" xmlns="http://www.w3.org/2000/svg" xmlns:xlink="http://www.w3.org/1999/xlink" x="0px" y="0px"
	 viewBox="0 0 71.73 71.73" style="enable-background:new 0 0 71.73 71.73;" xml:space="preserve">
<style type="text/css">
	.st0{fill:#315BA9;}
	.st1{fill:#FFFFFF;}
</style>
<g id="XMLID_1419_">
	<path id="XMLID_1421_" class="st0" d="M35.86,71.73L35.86,71.73C16.06,71.73,0,55.67,0,35.86l0,0C0,16.06,16.06,0,35.86,0l0,0
		c19.81,0,35.86,16.06,35.86,35.86l0,0C71.73,55.67,55.67,71.73,35.86,71.73z"/>
	<path id="XMLID_1420_" class="st1" d="M30.4,57.54h8.73V35.68h6.09l0.65-7.32h-6.74c0,0,0-2.73,0-4.17c0-1.73,0.35-2.41,2.02-2.41
		c1.34,0,4.72,0,4.72,0v-7.6c0,0-4.98,0-6.05,0c-6.5,0-9.43,2.86-9.43,8.34c0,4.77,0,5.84,0,5.84h-4.54v7.41h4.54V57.54z"/>
</g>
</svg>
